/* XPM */
static char *_534176132910[] = {
/* columns rows colors chars-per-pixel */
"64 64 165 2 ",
"   c #000006",
".  c #00010D",
"X  c #000014",
"o  c #01011C",
"O  c #000024",
"+  c #01012C",
"@  c #1D1725",
"#  c #141B2B",
"$  c #1B1A2C",
"%  c #010133",
"&  c #01023B",
"*  c #0A053B",
"=  c #080C39",
"-  c #100F3B",
";  c #121734",
":  c #1B1E35",
">  c #141439",
",  c #18163D",
"<  c #151C3D",
"1  c #1B1D3C",
"2  c #221C38",
"3  c #1B2234",
"4  c #1B223B",
"5  c #222127",
"6  c #24202E",
"7  c #232232",
"8  c #020243",
"9  c #0A0645",
"0  c #030947",
"q  c #0B0C45",
"w  c #02024C",
"e  c #09044C",
"r  c #05094C",
"t  c #0C0C4B",
"y  c #110C42",
"u  c #100E4D",
"i  c #121343",
"p  c #1C1742",
"a  c #171D44",
"s  c #1B1C44",
"d  c #15154E",
"f  c #161A4C",
"g  c #1A1B4B",
"h  c #020253",
"j  c #090455",
"k  c #060953",
"l  c #0B0B53",
"z  c #02025C",
"x  c #09045C",
"c  c #05095C",
"v  c #0A0A5C",
"b  c #0E105D",
"n  c #131454",
"m  c #191753",
"M  c #151954",
"N  c #1C1B53",
"B  c #14145B",
"V  c #1A165C",
"C  c #15195C",
"Z  c #191A5B",
"A  c #201E4D",
"S  c #172145",
"D  c #1F2346",
"F  c #1B224C",
"G  c #1E2059",
"H  c #222148",
"J  c #202252",
"K  c #2C2955",
"L  c #2D2B5A",
"P  c #322F5A",
"I  c #2E3255",
"U  c #353555",
"Y  c #35335B",
"T  c #3A355E",
"R  c #020164",
"E  c #090564",
"W  c #050964",
"Q  c #0A0A65",
"!  c #02016C",
"~  c #09066C",
"^  c #05096D",
"/  c #0A0A6B",
"(  c #130C6B",
")  c #0E1367",
"_  c #0F156A",
"`  c #0E1969",
"'  c #151564",
"]  c #191664",
"[  c #151963",
"{  c #1A1964",
"}  c #15166B",
"|  c #19166B",
" . c #15196C",
".. c #191968",
"X. c #020274",
"o. c #090674",
"O. c #060973",
"+. c #0A0972",
"@. c #02027B",
"#. c #0A057B",
"$. c #06087C",
"%. c #09097C",
"&. c #0E107F",
"*. c #141472",
"=. c #181371",
"-. c #161874",
";. c #1A1B77",
":. c #14127D",
">. c #151879",
",. c #201966",
"<. c #221D6D",
"1. c #211A7A",
"2. c #2C2960",
"3. c #212870",
"4. c #2E327B",
"5. c #4B4B65",
"6. c #4B496E",
"7. c #54526A",
"8. c #4C4A73",
"9. c #4A497F",
"0. c #555374",
"q. c #52537C",
"w. c #585479",
"e. c #020184",
"r. c #090483",
"t. c #060983",
"y. c #0B0986",
"u. c #02018B",
"i. c #08048B",
"p. c #0B098E",
"a. c #130A87",
"s. c #150B88",
"d. c #111181",
"f. c #020193",
"g. c #0A0592",
"h. c #02019B",
"j. c #09049B",
"k. c #08089A",
"l. c #0201A3",
"z. c #0802A3",
"x. c #0201AB",
"c. c #0802AC",
"v. c #0808A8",
"b. c #0201B3",
"n. c #0801B6",
"m. c #0101BB",
"M. c #0A01BC",
"N. c #464B82",
"B. c #4A4E83",
"V. c #464E8C",
"C. c #4C4D8C",
"Z. c #4C5184",
"A. c #4B5088",
"S. c #515183",
"D. c #4C4E91",
"F. c #4B4B99",
"G. c #504A94",
"H. c #4B5092",
"J. c #4A4CA3",
"K. c #0301C2",
"L. c #0A03C2",
"P. c #0701CB",
"I. c #0802C8",
"U. c #0800D0",
"Y. c #463EFF",
/* pixels */
"4.z e.f.f.f.f.u.u.u.f.u.f.f.f.f.u.u.f.u.e.W U U @.l.l.l.j.h.l.h.l.l.h.l.l.l.h.l.l.x.h.l.l.l.f.h.u.f.l.u.Y Y X.f.u.f.h.h.h.e.R 3.",
"[ W i.f.k.h.h.h.f.u.u.f.f.f.f.f.f.u.u.g.@.R 3 H t.l.x.l.l.l.l.j.j.f.f.h.l.l.h.h.l.z.z.l.h.l.h.h.j.h.v.@.p 1 @.k.h.h.h.l.j.u.W C ",
"8 Q r.u.f.f.f.h.f.u.u.e.e.u.f.f.e.e.e.i.X.h o , t.x.x.x.h.h.h.f.e.@.@.e.f.h.u.e.e.u.f.i.u.u.j.j.z.f.f.~ O , t.x.h.h.h.h.h.i.h 8 ",
"8 Q e.u.u.f.f.h.f.u.u.u.e.e.u.u.@.@.@.@.X.j X 1 o.h.j.h.u.e.u.@.! ! R ! @.e.X.R X.X.o.! R R X.@.@.X.R h X H p.x.l.h.h.h.f.@.h % ",
"w Q @.u.f.j.z.f.u.e.u.u.f.u.e.@.! ! X.! ! j o 7 w R ! R z h z z h h h h z z w 8 8 8 8 & O O O + + O o X   p u.b.b.x.l.h.u.X.0 + ",
"w ! @.f.h.l.x.f.u.e.f.f.f.f.e.@.! R ! z R w X : c X.$.@.O.X.^ ^ ^ ~ ^ O.O.O.^ Q / Q u i 1 4 a f F < 4 # 5 s t.x.b.l.h.f.e.! 8 O ",
"h ^ i.h.x.x.c.l.f.u.f.j.j.h.u.e.X.R R z h 9 X s O.h.x.x.l.g.f.f.f.f.u.u.f.h.f.h.j.u.^ w M k ~ o.o.R ~ e $ s r.l.l.h.f.u.u.X.e + ",
"h X.g.h.l.l.l.l.f.f.f.f.f.f.e.@.X.! z z w & X s t.x.M.M.n.x.l.z.x.x.h.h.l.x.l.z.z.f.X.w ..W i.f.i.u.@.h o 2 @.l.f.h.u.u.u.o.8 O ",
"w +.u.f.f.h.h.h.f.u.u.e.@.@.e.@.X.X.! ! z & X s u.b.n.b.x.l.l.x.x.x.l.h.h.f.f.u.u.@.c & [ W u.f.u.@.X.h X a t.l.h.f.h.f.e.R & O ",
"w ^ e.f.f.u.u.u.f.u.e.@.! ! X.X.! X.! X.R 8 . 1 u.b.b.x.l.h.x.x.x.l.l.h.u.u.e.@.e.! 8 % [ Q u.f.e.@.! w o g r.h.h.f.f.f.r.R & O ",
"8 R @.f.u.e.e.e.e.u.e.X.! ! ! ! z z R z z & . < t.m.b.x.l.l.b.b.x.x.l.f.@.X.@.r.X.R & + ] ~ e.f.g.e.! w o N i.l.h.f.e.@.X.R % o ",
"w W e.u.e.e.@.e.@.X.X.X.R R R R h h w w h & . a u.b.x.x.l.l.b.x.x.z.l.f.@.X.e.#.X.z & + ] ~ r.f.e.@.! h o A y.l.f.e.X.X.o.z & o ",
"8 E @.e.@.e.@.@.! ! ! X.! R z z h h w w w & X g p.x.b.x.l.l.x.l.h.h.h.f.f.u.e.@.! j = + Z ~ e.u.e.@.X.w X A #.h.e.@.! ! ! x % o ",
"& j ~ o.X.! ! R z h z z z z w 8 8 0 & 8 8 & X g u.b.b.b.l.h.f.h.f.h.f.u.f.f.u.X.R w % O Z E r.f.e.X.! w o 2 v ~ R z w w h 9 O . ",
"O * j j w h w w & & & & & % + + + % % + & O . s e.b.n.c.h.u.f.f.h.h.u.e.e.e.@.@.R w + O C ^ e.f.u.@.! h o @ o o o X X X o o .   ",
"& 8 w h w w h w 8 & & & & % O + & 8 & & & + o N e.x.b.v.f.u.f.f.h.h.u.e.@.@.X.! R w + O C ^ u.f.u.@.! w X 7 < S < 3 3 : s g g g ",
"f.g.f.f.i.f.g.u.@.t.e.i.r.o.k w @.g.u.f.r.^ k h f.x.l.l.h.f.l.z.l.h.u.e.e.@.! R x w + O C W e.u.e.#.! w X 2 ^ r.O.W 8 v @.p.f.u.",
"b.x.l.l.x.x.l.h.f.f.h.l.f.r.x h h.n.b.x.h.@.R h f.x.l.l.h.h.j.l.f.f.u.@.@.! R h h w % O [ ^ O.@.@.X.R w X s r.x.u.e.R %.h.b.b.m.",
"x.x.l.l.x.x.h.f.u.u.u.u.u.@.x z j.m.x.l.h.e.c w f.z.l.h.h.f.f.u.e.e.@.X.! R z w j e % + B W ! X.R R z w o g @.f.u.@.z r.h.x.b.m.",
"x.l.l.h.l.l.f.e.e.u.e.e.@.X.x z h.m.x.l.f.@.w 8 r.j.f.f.p.t.@.X.! R R R z h 0 0 8 * + O Z k z R h h w & o s / @.O.! z a.k.x.b.b.",
"l.h.h.h.z.l.u.@.u.e.@.X.X.! h z f.x.l.f.f.@.8 & E #.X.X.W W c k 8 8 8 8 & & % + O o o X A 9 r w 8 8 & O . # 0 h 8 w z r.j.b.x.b.",
"l.l.f.f.l.j.e.e.e.e.X.! ! R k w u.h.f.u.f.@.& + 8 w h h 8 8 & & & % % & % & % + O o o o y & % + & & & & O & 8 w & 8 ( s.z.x.l.h.",
"x.h.f.f.h.f.u.e.e.e.@.X.! R 0 8 p.h.f.e.e.X.8 O m m } ` ` ' } } } [ [ ' } ' } } V Z Z { <.B g g n Q %.i.i.i.i.r.) v 1.#.f.h.l.l.",
"x.l.f.f.f.f.u.u.u.e.@.X.! z 8 8 t.f.u.@.@.! 8 + g n ^ O.^ O.t.r.%.#.$.#.O.$.r.%.O.+.o.#.o.j i s Z ^ j.b.n.x.x.i.R w | #.j.l.h.h.",
"x.l.f.f.h.j.h.f.u.u.@.X.! z * 8 i.h.e.@.X.z 9 % V ~ i.z.l.x.n.n.x.x.l.h.f.g.h.f.f.k.h.j.u.~ 8 + { %.x.P.K.M.x.u.W 8 =.#.j.x.l.l.",
"l.l.f.f.h.l.l.h.u.e.@.@.! z & & @.e.X.R z w * + ] o.z.M.m.K.P.U.I.L.K.n.l.h.h.h.l.x.x.z.i.X.8 + [ @.x.K.m.n.l.e.h & ..o.l.x.x.l.",
"h.h.f.f.l.x.x.l.e.@.@.X.! h & % j c w 0 8 = O O Z o.l.m.m.K.I.I.K.K.P.m.x.h.u.u.f.f.f.u.r.R 8 % [ #.l.m.b.x.l.@.r % { o.l.b.x.l.",
"h.h.f.f.z.c.x.j.@.X.X.X.! h & + % & % & & + o o Z o.l.m.b.m.b.b.b.m.K.m.x.h.u.e.e.e.e.@.X.z 8 + ] O.l.b.x.l.h.e.w + { O.l.b.x.l.",
"f.f.f.f.l.l.h.u.@.! R ! R h & O g f B [ ..Z f J [ O.h.b.b.x.l.l.l.x.b.b.x.l.f.e.e.@.X.X.! z * % ] #.x.b.l.h.h.e.w & ..o.k.x.x.b.",
"f.f.f.h.l.l.u.@.X.! R R R h & O g l / +.+.Q t d [ O.l.b.b.l.h.f.h.h.l.l.x.z.f.e.e.X.R R ! z * + ] #.v.b.l.h.l.e.h & | #.f.l.l.x.",
"f.f.f.f.j.f.@.! ! ! R z z w & + N Q u.f.e.X.h w [ O.l.m.b.x.h.h.h.h.u.f.h.j.f.@.X.X.R R ! R & + ] #.h.x.h.h.z.i.h & | +.p.f.h.h.",
"f.f.f.u.f.u.X.R R R R R z h + O C +.g.l.u.%.z & [ O.l.m.x.x.z.l.h.h.u.e.u.g.r.@.! R z R ! R % + ' #.k.x.h.h.l.i.w & | O.e.f.f.f.",
"f.f.h.f.u.@.@.! z R E ! R h + o C / f.h.u.! 8 & ..O.h.l.h.h.l.x.h.f.u.e.@.X.X.! R z h h z h % + ] $.l.x.h.h.h.i.h & =.o.e.e.e.e.",
"f.f.h.f.e.@.@.! z h z R R k + O C / h.h.u.R 0 % ' O.h.x.h.h.l.l.u.e.e.e.X.! ! ! z z h w h w % + ] $.l.b.h.f.f.@.h & | o.i.u.e.@.",
"e.e.u.u.e.@.X.! z h z R R h % O C +.g.h.e.R 8 % ] o.h.l.f.f.u.e.^ R @.@.@.X.R z h h h h h w + O ..$.l.b.h.u.e.! 8 & ] o.i.f.f.f.",
"@.@.e.e.@.X.@.X.z h h h z e % + C O.f.h.u.! 8 % C Q e.g.i.e.@.X.z h z ! ~ R z h 8 0 w w w & o O { %.z.x.f.e.r.~ 8 % ] / g.h.h.f.",
"e.@.@.X.! X.X.X.z h w w w w & % [ O.f.h.f.@.w + s q c W c c z w & % & 8 8 8 8 * + % % + + + o O V o.h.l.u.e.@.o.8 % ] / u.f.h.h.",
"e.@.@.X.! ! X.! z w w w 8 8 & % [ O.f.l.h.@.h + , + & 8 & & 8 & % + + + & % % % + O O + O o o O Z o.f.j.u.@.@.! 8 % ] +.i.f.f.f.",
"u.i.e.@.X.! ! R h w h w 0 & O O C O.u.h.f.X.w + H i B [ ' [ | | ..[ ' [ ..] ] { C C V V Z m s J ] ^ h.z.h.u.@.z % + [ o.e.u.e.e.",
"! ! X.! R W z h w 8 w w 8 & O O C ^ i.f.e.! 8 + g t ~ O.^ ^ o.o.O.O.#.#.o.o.o.E / E ^ / / E t d [ o.h.x.l.f.@.z % + [ Q %.@.^ ! ",
"o o O O O + % & & % & 8 & + O O C Q u.u.@.R & + V / h.x.l.z.l.j.h.j.l.j.h.f.i.i.e.e.u.u.e.o.e & ` O.h.x.h.g.r.R & O M 8 w w & % ",
"$ : g N n r w j h c R E x j y g C Q i.u.X.R & + [ #.c.I.m.M.m.b.x.x.n.b.h.h.f.f.h.f.u.f.i.@.h & C ^ h.x.h.u.X.z & O f 0 x c = O ",
"M c #.g.j.f.h.h.f.k.h.z.h.u./ B | ~ i.i.X.R 8 % ] #.x.K.m.m.m.m.x.x.x.l.u.e.u.u.f.f.u.u.e.X.w % [ ^ h.l.u.X.R w % O g k o.! 9 + ",
" .O.h.b.m.m.K.K.b.b.b.b.x.j.X.h ' x #.r.! k & + { #.x.K.m.K.K.m.b.x.l.h.e.@.e.e.u.e.e.e.e.^ w & ` _ g.h.@.! z w + O N k ~ ~ w + ",
"` O.h.b.b.m.K.m.m.b.x.l.x.f.X.8 N q c z w & + O Z o.l.m.K.K.K.m.b.x.l.f.e.@.@.@.X.@.@.e.@.! w & B Q i.u.! z j e & + f 0 R ~ 8 + ",
"` $.z.n.b.b.K.m.b.x.l.x.l.f.O.8 i % 8 8 & + O O Z X.l.K.m.K.m.m.b.x.l.h.e.e.X.X.X.X.X.X.X.R 9 % G 0 R R h 8 8 9 + O g q j x * O ",
"-.O.l.b.l.l.b.b.x.x.h.v.z.f.^ 8 N M ' | ..Z a s N ^ l.m.m.b.l.x.b.x.x.l.f.u.@.X.! ! ! ! R w % o $ X o O o X X X   . ; = 0 8 * O ",
"-.@.l.n.l.h.l.x.l.x.h.l.h.g./ 8 B B ^ o./ c q f C E j.M.m.b.l.l.b.x.x.l.f.u.e.X.! ! ! R h 8 + X 7 : s g g g g g s s Z ' } ' N + ",
":.y.z.x.x.l.v.h.l.x.h.h.f.e.^ w  .O.u.f.e.O.h & C ^ j.b.b.b.l.l.m.b.b.x.f.e.@.X.! ! R z h * + O f l %.f.u.p.f.p.p.t.f.f.g.t.Q 8 ",
"d.y.h.b.b.b.h.v.l.l.f.u.e.r.W w >.$.f.l.f.e.z 8 ..O.h.b.x.x.l.l.b.b.n.x.f.u.e.X.! R R z h 0 & % ] O.j.b.b.m.m.b.b.x.x.b.x.f.R 8 ",
"*.d.f.l.l.x.b.b.z.f.u.u.u.e.E w -.$.f.h.g.@.z 8 } o.h.x.l.l.l.x.b.b.M.b.x.h.f.@.! R h h h h 8 & ] o.l.m.m.m.m.b.x.l.x.x.h.e.h & ",
">.O.g.f.l.x.K.M.h.f.f.u.f.r.x 8 *.#.g.j.f.@.c 8 | o.h.z.l.h.h.h.l.l.x.x.j.h.u.@.! R z h h w & & | o.h.b.b.M.n.x.l.h.h.h.u.X.9 + ",
"*.! j.c.x.L.Y.L.h.f.f.u.@.! h 8 } $.h.x.f.r.h & } o.h.l.h.f.u.u.u.f.f.u.e.@.@.@.X.! R z h 8 & + | %.h.z.x.x.n.b.l.h.f.e.X.R 0 + ",
";.@.h.x.b.b.L.b.h.f.f.e.X.z w & ..o.j.x.h.@.k & | o.h.x.l.f.u.e.e.e.u.e.X.X.X.X.@.X.X.R h 8 + + | @.h.l.h.l.l.x.h.u.@.X.! z 8 O ",
") d.h.b.b.b.b.x.h.f.f.e.! h 8 & [ O.l.x.h.X.h & [ #.l.b.l.h.h.u.e.e.e.e.X.! ! @.e.e.@.! z 8 = + ] #.f.l.f.f.h.h.u.e.X.X.! z & O ",
" .^ l.m.x.x.l.h.h.f.u.e.X.z 8 + [ O.j.l.f.X.0 % [ #.j.b.l.l.h.f.e.e.e.@.X.! ! X.@.r.@.! z e + + [ O.h.x.h.f.h.h.e.@.X.X.X.R & o ",
" .O.h.b.l.h.h.j.u.i.f.u.e.! 0 % ..O.h.z.e.R 0 + [ o.g.l.h.h.f.f.h.f.u.X.! z R R ! ! ! R h & + O [ $.l.b.h.h.l.j.f.e.@.@.e.! & o ",
"-.O.k.l.h.f.u.e.@.e.f.f.u.o.0 & ' %.f.h.@.R 8 % [ O.f.l.f.f.f.f.f.f.u.@.! R R z h z h h w 8 + O ' @.v.b.h.h.l.l.f.u.@.@.@.R 0 o ",
"*.^ u.u.u.u.e.@.R ! u.e.@.R & % ' O.g.g.@.W 8 + ' X.h.c.l.h.l.h.e.e.@.X.! R z z h w 8 w 8 & + + { O.l.x.l.h.x.x.j.u.@.@.$.R & X ",
"} O.u.u.@.X.@.X.R R @.e.X.R 8 + [ O.e.u.@.R 0 & ..+.h.x.l.h.l.h.@.! X.X.! R z z h h w w w 8 % % | O.h.x.h.h.l.h.f.e.X.X.X.h % O ",
"} ~ i.f.@.X.@.X.! R X.X.X.z 8 & ' +.i.u.@.~ e % ] o.j.z.j.j.f.e.! ! X.! R z z z ! ! R z h w & & ' o.j.c.h.h.f.f.u.e.@.X.X.z 8 O ",
"..E X.X.! E ! R R z R W ! z 9 N { Q o.@.! h 9 d ,.E i.g.u.e.X.! R W R R z h z z ^ E E R h e 9 N ../ r.e.e.@.r.@.X.! ! ! R c * O ",
"K g l x h h e j j h l r h 9 - K L t k k e & - P K V / o.W z c k 0 r e w e e w e w w w e 9 8 - P L B x W z c x c e e r k 0 & q p ",
"0.6.9.C.C.C.G.C.G.G.C.B.A.D.8.0.0.8.B.Z.q.q.5.7.w.9.F.J.F.H.D.V.Z.V.V.V.Z.B.C.C.A.Z.Z.B.S.S.6.0.S.N.C.D.V.C.V.C.B.Z.N.Z.Z.Z.8.T "
};
