/* XPM */
static char *_536066445466[] = {
/* columns rows colors chars-per-pixel */
"64 64 250 2 ",
"   c #050304",
".  c #0B0402",
"X  c #0B0905",
"o  c #06090C",
"O  c #0C0C0C",
"+  c #060708",
"@  c #120E0C",
"#  c #140803",
"$  c #0D100E",
"%  c #12110D",
"&  c #1C120C",
"*  c #0C0E11",
"=  c #060C15",
"-  c #130F11",
";  c #0E1112",
":  c #0B131C",
">  c #121213",
",  c #1B1413",
"<  c #14151B",
"1  c #1B1A1A",
"2  c #191919",
"3  c #271508",
"4  c #321B07",
"5  c #261B15",
"6  c #331E16",
"7  c #220D04",
"8  c #26221D",
"9  c #382618",
"0  c #38230C",
"q  c #0D1425",
"w  c #0E152A",
"e  c #0E192A",
"r  c #0C1922",
"t  c #141524",
"y  c #141A24",
"u  c #1C1B24",
"i  c #11162A",
"p  c #12192C",
"a  c #1A1C2C",
"s  c #1A1624",
"d  c #0E1B3C",
"f  c #0D1934",
"g  c #131B33",
"h  c #131C3B",
"j  c #141836",
"k  c #0E0F21",
"l  c #211C25",
"z  c #1A2436",
"x  c #1A262F",
"c  c #272528",
"v  c #372B26",
"b  c #3D312B",
"n  c #262A35",
"m  c #3A3638",
"M  c #322A33",
"N  c #1F211C",
"B  c #452816",
"V  c #4C2F1A",
"C  c #462E25",
"Z  c #463628",
"A  c #563825",
"S  c #483B37",
"D  c #583D32",
"F  c #633C2A",
"G  c #783F34",
"H  c #5C422D",
"J  c #594639",
"K  c #4D4130",
"L  c #66422D",
"P  c #684837",
"I  c #73503B",
"U  c #121B42",
"Y  c #141E4A",
"T  c #0F1E43",
"R  c #152248",
"E  c #132453",
"W  c #15275B",
"Q  c #0F234E",
"!  c #283747",
"~  c #2C3152",
"^  c #162B68",
"/  c #16316A",
"(  c #192C74",
")  c #193578",
"_  c #0F2A71",
"`  c #25366D",
"'  c #4F3D48",
"]  c #344455",
"[  c #304876",
"{  c #474347",
"}  c #594A46",
"|  c #555050",
" . c #695649",
".. c #785846",
"X. c #675550",
"o. c #79655A",
"O. c #796153",
"+. c #49566C",
"@. c #675867",
"#. c #776D6C",
"$. c #546A7F",
"%. c #845946",
"&. c #905A49",
"*. c #87644D",
"=. c #8A6755",
"-. c #956B58",
";. c #98735C",
":. c #8F705E",
">. c #A6705C",
",. c #887469",
"<. c #9C7A65",
"1. c #997767",
"2. c #857B74",
"3. c #967C75",
"4. c #8D6A65",
"5. c #A37B64",
"6. c #A37C69",
"7. c #A87A67",
"8. c #B1786B",
"9. c #844F3D",
"0. c #9A8479",
"q. c #99826C",
"w. c #A4836D",
"e. c #AB826D",
"r. c #AC876B",
"t. c #AC8573",
"y. c #AC8A74",
"u. c #A88878",
"i. c #B38A75",
"p. c #B48D7B",
"a. c #B98877",
"s. c #BB937C",
"d. c #B7947C",
"f. c #B3896E",
"g. c #C3957C",
"h. c #C28B7B",
"j. c #1C3985",
"k. c #1D3E94",
"l. c #223D95",
"z. c #213A86",
"x. c #1D448A",
"c. c #1F4995",
"v. c #23458A",
"b. c #244998",
"n. c #2F5499",
"m. c #274DA5",
"M. c #2955A8",
"N. c #2D58B1",
"B. c #335EAF",
"V. c #3667A8",
"C. c #3869B9",
"Z. c #3B72B5",
"A. c #3367AB",
"S. c #52698C",
"D. c #6C7790",
"F. c #4472A9",
"G. c #5879A9",
"H. c #4576BA",
"J. c #597EB4",
"K. c #486AAB",
"L. c #667DAF",
"P. c #425891",
"I. c #3C6DC1",
"U. c #3D73C5",
"Y. c #4779C7",
"T. c #4C76C5",
"R. c #8B7A8A",
"E. c #74879B",
"W. c #5B82AD",
"Q. c #5783B7",
"!. c #4F86BE",
"~. c #6587B6",
"^. c #7796BA",
"/. c #6E8AAD",
"(. c #5788C5",
"). c #5288C7",
"_. c #658CC3",
"`. c #6C9CCD",
"'. c #6A96C7",
"]. c #749DCB",
"[. c #779AC6",
"{. c #6B99D2",
"}. c #75A1CD",
"|. c #7CA2CC",
" X c #7CA2C5",
".X c #79A5D2",
"XX c #93888E",
"oX c #A99486",
"OX c #BB9582",
"+X c #B79987",
"@X c #AC918D",
"#X c #BBA496",
"$X c #B7A18B",
"%X c #859BB8",
"&X c #8C93A9",
"*X c #A69AA4",
"=X c #8EA1B6",
"-X c #B6ABAC",
";X c #C59C84",
":X c #C39C8B",
">X c #C89986",
",X c #D39B8B",
"<X c #CB968B",
"1X c #CCA38B",
"2X c #C6A38A",
"3X c #D3A78D",
"4X c #CBA392",
"5X c #CCAA93",
"6X c #C7A898",
"7X c #D3AC94",
"8X c #DBAC9B",
"9X c #D6A997",
"0X c #DCB39B",
"qX c #D8B39A",
"wX c #E2AA96",
"eX c #E3B69D",
"rX c #DCB3A2",
"tX c #D9B5A6",
"yX c #D0B1A6",
"uX c #E4B5A4",
"iX c #E3BBA3",
"pX c #E3BCAB",
"aX c #E9BAA9",
"sX c #E7BCB4",
"dX c #EAB4A8",
"fX c #DCC6B9",
"gX c #E6C1AA",
"hX c #EAC3AB",
"jX c #E9C1A5",
"kX c #ECC4B3",
"lX c #EDC9B5",
"zX c #ECCCBC",
"xX c #E8C4B5",
"cX c #F3CCBB",
"vX c #F4C8B7",
"bX c #F5D1BC",
"nX c #F0C7B1",
"mX c #819FC6",
"MX c #84A4CC",
"NX c #8BAACB",
"BX c #89A7CA",
"VX c #83A5D3",
"CX c #8AA9D5",
"ZX c #91A9D4",
"AX c #95AECD",
"SX c #9BB4D8",
"DX c #F3D2C4",
"FX c #F3D5CA",
"GX c #FAD8CA",
"HX c #F0D2C7",
/* pixels */
"+.n g z z g n g p p p p a p p p i y a p q p g p a a l a x 1 < y r i r r r p p y u u y a t p w p e p e p w e e i i j j k j q z { ",
"z t i g e i g i p p p g p g a p a a r x z e i p a s s l N n { { m { { | n n c l u u u p s g f e p i i e e e e e i a i k t t p z ",
"i e p a e p a i p p p p p p e p j p j p i g a a < c m X.2.#.#.,.,.q.0.0.#.o.| { v u : a p e f d f i e e e e e e w i i k p p r : ",
"p p p e p p e e p p p p p p p g j i j i p a < u m @.2.#.2. .K J H .. . . . . .X.@.| M q q z h w i i e i e r w w w i i i q p e q ",
"p p e q p p e i p i p p p p p p j j p a x < c $.XXo. .J K V Z H V H 0 3 C J J } } } | ' n : e i i i e i e w e w i i i i q q q e ",
"p p p a a e e a i p i p p e p p e h j a ; c 2.0.J J K A 0 4 4 4 V A 3 # 3 9 9 9 C v b X.@.m s s i i e p e w r w i k w i q k q q ",
"i p p p e e i p p y e p p p p p r p y : c o.q.K K 9 0 9 Z V 0 B 9 K b 9 8 3 8 9 6 9 3 b } b c < i i i p e w e w q q w k w w w w ",
"p p p q p p a e p p p p p p p p e x < ; | 2.J b v 3 4 A P I I K K K C b 9 5 3 & 6 6 # 5 Z l 5 c s i p i e e e r r i w k k w w w ",
"i i e p p p p p p p p p p p p y y u < #.2.b 4 4 0 0 H *.%.....P P A V B B 9 3 3 7 3 6 3 & 5 < n l : t i w w w w q q q q q w w w ",
"i p p p p p p p p p p e p p p p p : m 0.K 3 0 K I =.1.<.4.=.%.9.P P F P P L A 6 6 6 6 3 , 2 > c s u a i q w w q q q q q q i w w ",
"y e p p p p p p p p p y p p e p x = @.#.S C H ..q.$X$Xp.w.-.9.&.>.>.8.8.f.e.q.:.*.D 9 7 & 3 , c l l t t w w w w q q q r k w w w ",
"p p e y p i p p p p i p p p p p x x #.@.J J I *.d.5X4X2Xs.r.r.h.,XwXeXeXeXeXeX7X6.*.P B 9 3 7 3 v c < r e w k w q q q q w w w w ",
"e e p p p p g p p p p p p p p p r n @.K J A L q.2X5X5X5X1X3X3XeXeXeXjXgXlXnXjX2Xp.e.5.%.L 0 4 7 5 b c u k w j f w w w w k k w w ",
"p p p p p p p p p p e p p p p p 2 n m K H H ..y.5X5X5XqX7XjXjXjXnXnXlXzXbXbXhXqX8X1Xs.5.*.P V B 6 v l c s w k j w w k k w w k w ",
"e p p p p p p g p p p p p p p i r m K  .I P :.d.qX5X5XqXqXhXjXjXlXzXzXzXzXzXzXlXiXqX;Xp.5.=.I C 9 v 5 M a i w w f w w k w w w w ",
"i p i p g p p p p p g e p p p i 2 m b J ..O.w.5X5XqX5XgXjXjXjXbXbXzXHXHXHXDXbXzXkXhX0X1Xi.<.%.H B b 6 M i w d f f w w w w w w w ",
"g p g g g p p a p z g g f h f e l M Z  ...<.2X7XqXqXtXpXgXhXhXbXFXFXGXFXDXHXDXDXlXhXeX3Xg.f.-...Z 9 9 J j j f f h d f w f j w j ",
"g f g g j g a g g g f h g h h z c { } ,.OX+X1XqX8X0XpXpXtXxXkXlXHXFXFXFXFXHXDXzXlXkX0XqX3Xg.>.=.P 9 0 } n f f d U U U f f j j U ",
"f g d h h h g g h h j j h n d t M S } 3.+X2X5X1X7XpXpX8XtXlXlXbXHXDXFXFXFXFXHXDXzXiXqXqX7Xg.5.=.I Z b } ~ j R d U U U f f f U U ",
"g d h U U T z d h R Y Y h h h n v C  .oX+X2X5X3X0XrXpXsXlXbXcXbXGXGXFXFXHXFXHXHXlXgXjXqX7Xg.f.;.P B 9 { ! d R U Y U U T U U U U ",
"R U Y Y R R Y R Y Y Y Y ~ Y j M v Z X.oX$X2X;X;Xs.a.t.1.u.pXGXGXGXGXGXGXGXFXHXHXlXlXtXqX7X2Xs.5.J 4 3 ' ~ Y Y R E Q Y Q U Q Y Y ",
"R R E E E E E Q Y Y W W Y Y @.R.} Z =.p.s.2Xg.s.OXp.:Xt.P *.7XxXDXGXGXGXGXGXGXFXgXgX0X7X3X2X;Xe.J 9 6 ' ~ W E E W W E Y Q Q Y _ ",
"E E W W W W W W W W W W Y ~ @.-XXXF 3.d.s.2X3Xg.,XrXpXxXkXp.1.8XxXDXFXFXHXDXGXDXDXbXhXqXqX;Xs.t.H 9 M ~ W W W W _ W W W W W _ W ",
"W ^ / / / / _ / ^ ^ ` ^ ( ~ @.R.@XD 1.p.;X;Xg.;Xs.4XpXxXcXcXpX5XpXsXcXHXzXzXxXxXs.5.*.5.1X1XOX6.P 1 R ~ ` ^ ( ( ( _ ( _ _ _ _ _ ",
"/ / ) ) ) ) / ) / ) ) ) ` ~ R.<X4.G 6.OX2X3Xg.i.;.7.OX4X8XrXrX4X8XzXDXxXsXsX6Xu.=.I I F -.>Xu.u.X.5 R ` ( j.j.j.j.( j.j._ ( j.( ",
") ) ) [ v.) x.) ) x.) ) z.~ R.8X4...8.OX,X1X;Xg.7.;.8.F D 1.p.:X9XDXcXpXyX:XyXrXpXrX9X;X-.-.p.u.o.s ~ ` j.j.j.j.j.j.j.k.j.j.j.j.",
"x.[ x.c.v.v.x.x.x.x.c.v.l.[ R.yX4.=.u.OX;X1X3XeXrX4XyX@XOXOX2X;X<XvXDXrX:XtXpXxXpX8X:X4Xi.-.r.u.X.i ` v.j.k.l.k.l.l.l.l.l.l.l.l.",
"x.c.c.c.v.n.c.c.c.n.c.n.l.[ *XtXu.6.6.OX>X7XeXgXkXsXtXdXpXrXvX7X3XvXkX<X:X+X+X8XrX4Xa.a.7.;.6.6.} a v.c.m.m.k.m.l.l.m.m.l.l.l.l.",
"n.n.M.M.n.n.M.M.n.n.M.M.M.P.*X8XOX8.t.>X3X8XeXeXsXvXzXsXuXpXuX>X3XuXuX4XtXR.9X-.F -.>.1.6.8.4.3.C ~ n.m.m.m.N.N.N.m.m.m.m.m.m.m.",
"n.A.A.N.V.M.M.B.A.A.A.B.A.P.*X4X@Xu.t.OX3X9X0X0XpXaXsXvXxXvX0X8X8XdX8X:X9X9XsXa.I ..%.>.6.8.8.&.6 @.P.N.N.N.N.N.N.N.N.N.N.m.m.N.",
"A.Z.Z.Z.V.V.Z.Z.Z.Z.C.C.I.K.XX4Xp.t.i.a.1X3X8XeXpXvXcXDXcXkX8X>X<XaX8X>X8XuX,XsX4Xa.;.8.OX8.8.X.' R.K.I.I.N.I.N.N.I.N.I.I.N.N.N.",
"Z.Z.Z.!.H.J.H.Y.Z.Z.T.Y.Y.G.&X6Xp.t.i.OX1X3X9X0XaXkXcXlXcXaX,X;XwXdX8Xa.uXsXsX9X9X9X0X:XOX6.4.G @.D.K.T.I.I.I.Y.I.I.I.I.I.N.I.I.",
"!.!.).).!.!.!.!.).Y.(.T.J.L.&X-Xp.r.d.2X1X3X0XqXgXlXvXbXaX,X<X<XuXsX9Xf.8XcXsXsXsXuX8X7Xg.7.%.' @.D.L.T.H.Y.Y.U.Y.Y.Y.Y.Y.U.U.I.",
"(.(.(.(.'.(.^.!.{._.{.{._.^.&X*Xu.f.s.2X1XqXqXqXhXkXcXgX8X,X,X,XsXvXuX8.eXaXGXsXeXeX8X1Xs.5.D 4.&XL.L.T.).).Y.).Y.Y.T.T.Y.Y.Y.U.",
"{.].{.'.`.'.'.`.{.{.{.{.].mX%X&X0.y.g.2XqX0X7XqXiXlXaXvX8Xg.%.8.dXvX>X8.3XaXDXdXdXwXg.g.d.=...*X*XL.L.T.).Y.U.).Y.Y.Y.H.T.Z.C.Z.",
"].].[.].].[.}.`.'.`.{.{.{.].[.E.0.r.g.1XqXjXqXjXlXkXsXaXuX8X>.>.<X8.G h.8XvXsXsXeXwXg.8.5.*.@X*XL.K.K.J.Z.Z.Z.Z.U.C.A.Z.A.A.A.A.",
"_._.[._._.~.^.~.!.~.'.(._._.~./.0.r.d.2XqXjXqXjXhXgXsXuXdXdX,X8.&.&.9.8.9XrXpXaXeXg.g.f.4.,.-X2.S.K.H.F.Z.Z.Z.V.A.V.V.V.V.V.n.V.",
"L.~.L.L.Q.Q.Q.W.W.~.Q.Q.Q.W.~.D.0.u.y.g.iXjXiXjXvXvXrXrXdXwXwXdXwX,X,X<X9X8XgXiXg.f.g.f.4.3.XXD.G.K.F.F.Z.Z.Z.Z.F.F.S.F.F.F.F.V.",
"L.J.J.J.J.J.W.G.G.J.W.~.W.W.W.D.q.y.y.$X0XhXnXgXpX8XpX8XdXdXsXdXsXdX<X,XeXuXuX0Xg.r.7.7.4.R.D.E.L.Q.Q.).!.!.!.!.!.W.W.W.!.!.Q.Q.",
"W.W.J.Q.Q.Q.Q.~.W.W.~.~.W.~./.D.#.y.y.g.qXjXvXiX8XrX,X>X,Xh.h.g.<XwX9X,X9XaXhX8Xr.f.h.<.3.*X^.^.[.{.`.'.'.`.'.'.'.'.'.'.'.~.'.'.",
"^./._.'.{.{._.[.[.[.[.[.[.^.BXE.#.oXu.u.5XsXnXiXrX1Xf.7.a.,XwXg.h.8.,XwX4XsXnX;Xf.2Xd.=.2.=X X.X.X}.}.}.}.}.].}.'.'.`. X`.}.`.`.",
"MXMXVXVXVXVXVXVX.XMXBXZXZXVXNX&X#.0.u.1.+XpXnXeX1X7X1X<Xa.>X,XwXwXh.>.h.<XqXnX2Xg.2Xy.o.0. X X.X.X|..X|.}.}.]. X X X`. X`.`.}.`.",
"CXBXBXZXZXMXMXMXNXCX.XCXCXVXVXAX0.,.oX1.;.d.lXhX0X1Xg.g.7.>.&.&.8.h.>.>.6X4XiXeX3Xd.,.#.=X=X X.X|.|.|.|.|.|.].].}. X`.}.}.}.}.`.",
"ZXZXZXZXZXZXBXBXCX.XSX.XCXCXVXSX*XX.1.u.<.;.w.1X1X;X>XeXwX9X8.>.&.&.R.8.5X5XjXeXg.y.o.E.=XNX X.XVX|.|.[.|. X X]. X`.`.}.`.`.}.`.",
"ZXZXZXZXZXZXBXNXNXCX.XCXCXBXSX&X#.o. .,.d.OXp.d.5XqX0X0XdXaXaXwXwXh.h.4X+X:XhX3Xg.q.@.&X=XNX X|.MXMX|.|.|.|.|.|. X}.'. X}.}. X'.",
"ZXVXZXZXBXBXBXNXNXCXCXCXBXAX%X: 5 0.=.I <.y.r.5X7X7X1X1X8X8XuXdXwXwXa.2X6XpXjX1Xr. .#.=X=X XNX X.X.XMX|.|.|.|.}.`.}.}.}. X}. X X",
"VXVXCXVXBXZXBXNXCX.XCXCXSXE.< { #X,.q.O.L -.=.r.7X5Xp.a.<X,X,X<Xh.wX,Xd.rXjXs.;.*. .c x E. XNXCX|. X.X.X X}.}. X}.}.}.}.}. X X^.",
".X.XVXVXVXBXmXBXBXZXZXAX+.= 8 -X#X,.q.r...L I *.t.5XOX:X4XrXyX8.>.h.,Xw.;.;.*.9...b O o = ] +.+.^. XMXMX X[. X}.}.}.}.`.}.`. X'.",
".X.X.X.XVX XBXNX%XD.E.] @ O 9 -X$X:.q.y.q.I H L =.s.w.w.OXOX<X8.y.2Xg.r.w.5.=.P } 3 O ; = : = r ] $.E.^.^.%X^.^.^.^. X].'.[.].'.",
".X{.}..X[. X/.E.] x x 2 . . 5 $Xd.w.w.w.w.q.O.H V ..;.;.;.-.1.6.+X+Xw.G *.*.A H  .3 X + + ; ; 2 x x x n ] +.E.^./.^.^. X[.'._.[.",
"_.[.MX/.+.$.! a n < ; $ $ X 3 oXd.q.y.y.y.y.w.*.L A I ..*.;.<.<.O.O.L V V B L :.J # .   + > > > 1 > N n n r x ! ] ] [ S.E.^./.%X",
"%XE.S.~ e n r : < > $ + X   X 0.oX<.i.+Xd.q.r.w.:.P L L L P P L A V V V F I ;.,.Z . X + + $ O + O $ 2 N N < c n c : $ r ! ! ! +.",
"+.~ n x 2 u < - o o >   X & . o.oX<.t.+X2Xp.t.6.w.-.*...P L A A A V F 9.*.<.:.,.v . X     - * # X % 5 c 1 c b c N % r N < N r y ",
"c v n 8 < * < . X O 2 +   X    .+X6.w.OX6X:Xd.w.t.w.;.=.*...I I L 9.%.;.;.6.w.q.6       o > @ + % 5 5 5 5 8 c 8 $ X N % > 8 N X ",
". 8 8 , @ & - + O O 2 O X X   K +Xu.u.u.4X4XOXy.y.y.w.<.=.*.=.*.9.-.r.f.t.t.+X,.# .   o o - O . , 5 1 > > 2 , % % $ $ X % N 2 X ",
"O , , 8 & & @ @ O o %   $ $   & 0.u.p.w.+XqX5Xy.w.e.f.6.;.-.-.*.r.r.f.5.OX+XoX' . . + *   @ O X O 2 > O > 1 1 % % X X $ N N X % ",
"> O 2 N % & & X   O ; ; o o o . J 6Xd.y.$X2XqX2Xe.7.5.7.;.-.;.w.f.f.p.$X2X+X,.# . @ O   o - X + $ ; ; $ > < 2 ; ; $ O < < o - - ",
"< > < 2 $ @ % $   + ; $ o $ * X & u.#X0.+X#X5X2Xs.e.-.-.>.5.7.w.i.f.#X6X#X,.3   X O O   * - O . $ $ % $ ; 2 > > ; $ * < , * < - ",
"< = ; > % % - > X + $ o o O @ O . v $X#X0.#XqX5X:Xp.e.6.7.e.p.OXg.qX#X$X3.3 . @ @ O O + O > O + O $ $ @ % > 2 $ > O @ > - O - - ",
"< * o ; 2 > * * o o o $ o o O # O   8 0.oXoXyXfX6Xp.w.u.p.s.6X5XyX6X#Xo.# # # @ * O O   O > O + X @ @ @ $ 2 > % > O @ - - - - O ",
"> $ $ $ > > < ; = o o ; $ X X X @ % X & } $XyXtX#X+X+X+X$X#XyXfXfX#XX.3 & # > O $ O +   O > o X O @ X $ $ $ % > $ X $ % - - - O ",
"> O O $ @ @ > < * = o o % O   X + - @ . . 8 R.HXfXyX#XoX#XfXHXfX0.b   # O > O O O O + X $ > $ $ O O @ $ $ ; % > O X > $ O O . - ",
"c % $ 2 % & & % O o + o ; ; X O * o < - , # # v X.,.oX$XoXq.J 9     > % < ; - > O O O X O > ; o o $ O $ $ $ ; < $ ; > $ $ o - c ",
"| 8 O O % % % % O $ X + > ; O ; * - o > - , # # . # & 3 # X X X % > % % < ; ; ; O O O X % > o o ; = * $ ; ; ; < $ < : o $ ; u | "
};
